<svg width="66" height="64" viewBox="0 0 66 64" fill="none" xmlns="http://www.w3.org/2000/svg">
<g clip-path="url(#clip0_23_2)">
<rect width="66" height="64" rx="15" fill="#212B2C"/>
<mask id="mask0_23_2" style="mask-type:alpha" maskUnits="userSpaceOnUse" x="10" y="-1" width="46" height="46">
<rect x="10" y="-1" width="46" height="46" fill="#D9D9D9"/>
</mask>
<g mask="url(#mask0_23_2)">
<path d="M21.5 37.3333C20.4458 37.3333 19.5437 36.9583 18.7937 36.2082C18.0423 35.4569 17.6667 34.5542 17.6667 33.5V27.75H21.5V33.5H44.5V27.75H48.3333V33.5C48.3333 34.5542 47.9583 35.4569 47.2082 36.2082C46.4569 36.9583 45.5542 37.3333 44.5 37.3333H21.5ZM33 29.6667L23.4167 20.0833L26.1 17.3042L31.0833 22.2875V6.66666H34.9167V22.2875L39.9 17.3042L42.5833 20.0833L33 29.6667Z" fill="#097178"/>
</g>
<mask id="mask1_23_2" style="mask-type:alpha" maskUnits="userSpaceOnUse" x="8" y="25" width="50" height="50">
<rect x="8" y="25" width="50" height="50" fill="#D9D9D9"/>
</mask>
<g mask="url(#mask1_23_2)">
<path d="M8 56.25V43.75H11.125V47.9167H15.2917V43.75H18.4167V56.25H15.2917V51.0417H11.125V56.25H8ZM24.1458 56.25V46.875H20.5V43.75H30.9167V46.875H27.2708V56.25H24.1458ZM33 56.25V45.8333C33 45.2431 33.2 44.7479 33.6 44.3479C33.9986 43.9493 34.4931 43.75 35.0833 43.75H44.4583C45.0486 43.75 45.5431 43.9493 45.9417 44.3479C46.3417 44.7479 46.5417 45.2431 46.5417 45.8333V56.25H43.4167V46.875H41.3333V54.1667H38.2083V46.875H36.125V56.25H33ZM49.6667 56.25V43.75H52.7917V53.125H58V56.25H49.6667Z" fill="#097178"/>
</g>
</g>
<defs>
<clipPath id="clip0_23_2">
<rect width="66" height="64" fill="white"/>
</clipPath>
</defs>
</svg>
